<?xml version="1.0" encoding="UTF-8" standalone="no" ?>
<svg xmlns="http://www.w3.org/2000/svg" width="40.671ex" height="8.981ex" viewBox="0 -2234.9 17976.5 3969.8" xmlns:xlink="http://www.w3.org/1999/xlink" aria-hidden="true" style=""><defs><path id="MJX-368-TEX-I-1D439" d="M48 1Q31 1 31 11Q31 13 34 25Q38 41 42 43T65 46Q92 46 125 49Q139 52 144 61Q146 66 215 342T285 622Q285 629 281 629Q273 632 228 634H197Q191 640 191 642T193 659Q197 676 203 680H742Q749 676 749 669Q749 664 736 557T722 447Q720 440 702 440H690Q683 445 683 453Q683 454 686 477T689 530Q689 560 682 579T663 610T626 626T575 633T503 634H480Q398 633 393 631Q388 629 386 623Q385 622 352 492L320 363H375Q378 363 398 363T426 364T448 367T472 374T489 386Q502 398 511 419T524 457T529 475Q532 480 548 480H560Q567 475 567 470Q567 467 536 339T502 207Q500 200 482 200H470Q463 206 463 212Q463 215 468 234T473 274Q473 303 453 310T364 317H309L277 190Q245 66 245 60Q245 46 334 46H359Q365 40 365 39T363 19Q359 6 353 0H336Q295 2 185 2Q120 2 86 2T48 1Z"></path><path id="MJX-368-TEX-N-3D" d="M56 347Q56 360 70 367H707Q722 359 722 347Q722 336 708 328L390 327H72Q56 332 56 347ZM56 153Q56 168 72 173H708Q722 163 722 153Q722 140 707 133H70Q56 140 56 153Z"></path><path id="MJX-368-TEX-N-73" d="M295 316Q295 356 268 385T190 414Q154 414 128 401Q98 382 98 349Q97 344 98 336T114 312T157 287Q175 282 201 278T245 269T277 256Q294 248 310 236T342 195T359 133Q359 71 321 31T198 -10H190Q138 -10 94 26L86 19L77 10Q71 4 65 -1L54 -11H46H42Q39 -11 33 -5V74V132Q33 153 35 157T45 162H54Q66 162 70 158T75 146T82 119T101 77Q136 26 198 26Q295 26 295 104Q295 133 277 151Q257 175 194 187T111 210Q75 227 54 256T33 318Q33 357 50 384T93 424T143 442T187 447H198Q238 447 268 432L283 424L292 431Q302 440 314 448H322H326Q329 448 335 442V310L329 304H301Q295 310 295 316Z"></path><path id="MJX-368-TEX-N-69" d="M69 609Q69 637 87 653T131 669Q154 667 171 652T188 609Q188 579 171 564T129 549Q104 549 87 564T69 609ZM247 0Q232 3 143 3Q132 3 106 3T56 1L34 0H26V46H42Q70 46 91 49Q100 53 102 60T104 102V205V293Q104 345 102 359T88 378Q74 385 41 385H30V408Q30 431 32 431L42 432Q52 433 70 434T106 436Q123 437 142 438T171 441T182 442H185V62Q190 52 197 50T232 46H255V0H247Z"></path><path id="MJX-368-TEX-N-6E" d="M41 46H55Q94 46 102 60V68Q102 77 102 91T102 122T103 161T103 203Q103 234 103 269T102 328V351Q99 370 88 376T43 385H25V408Q25 431 27 431L37 432Q47 433 65 434T102 436Q119 437 138 438T167 441T178 442H181V402Q181 364 182 364T187 369T199 384T218 402T247 421T285 437Q305 442 336 442Q450 438 463 329Q464 322 464 190V104Q464 66 466 59T477 49Q498 46 526 46H542V0H534L510 1Q487 2 460 2T422 3Q319 3 310 0H302V46H318Q379 46 379 62Q380 64 380 200Q379 335 378 343Q372 371 358 385T334 402T308 404Q263 404 229 370Q202 343 195 315T187 232V168V108Q187 78 188 68T191 55T200 49Q221 46 249 46H265V0H257L234 1Q210 2 183 2T145 3Q42 3 33 0H25V46H41Z"></path><path id="MJX-368-TEX-N-2061" d=""></path><path id="MJX-368-TEX-N-28" d="M94 250Q94 319 104 381T127 488T164 576T202 643T244 695T277 729T302 750H315H319Q333 750 333 741Q333 738 316 720T275 667T226 581T184 443T167 250T184 58T225 -81T274 -167T316 -220T333 -241Q333 -250 318 -250H315H302L274 -226Q180 -141 137 -14T94 250Z"></path><path id="MJX-368-TEX-I-1D465" d="M52 289Q59 331 106 386T222 442Q257 442 286 424T329 379Q371 442 430 442Q467 442 494 420T522 361Q522 332 508 314T481 292T458 288Q439 288 427 299T415 328Q415 374 465 391Q454 404 425 404Q412 404 406 402Q368 386 350 336Q290 115 290 78Q290 50 306 38T341 26Q378 26 414 59T463 140Q466 150 469 151T485 153H489Q504 153 504 145Q504 144 502 134Q486 77 440 33T333 -11Q263 -11 227 52Q186 -10 133 -10H127Q78 -10 57 16T35 71Q35 103 54 123T99 143Q142 143 142 101Q142 81 130 66T107 46T94 41L91 40Q91 39 97 36T113 29T132 26Q168 26 194 71Q203 87 217 139T245 247T261 313Q266 340 266 352Q266 380 251 392T217 404Q177 404 142 372T93 290Q91 281 88 280T72 278H58Q52 284 52 289Z"></path><path id="MJX-368-TEX-N-31" d="M213 578L200 573Q186 568 160 563T102 556H83V602H102Q149 604 189 617T245 641T273 663Q275 666 285 666Q294 666 302 660V361L303 61Q310 54 315 52T339 48T401 46H427V0H416Q395 3 257 3Q121 3 100 0H88V46H114Q136 46 152 46T177 47T193 50T201 52T207 57T213 61V578Z"></path><path id="MJX-368-TEX-N-29" d="M60 749L64 750Q69 750 74 750H86L114 726Q208 641 251 514T294 250Q294 182 284 119T261 12T224 -76T186 -143T145 -194T113 -227T90 -246Q87 -249 86 -250H74Q66 -250 63 -250T58 -247T55 -238Q56 -237 66 -225Q221 -64 221 250T66 725Q56 737 55 738Q55 746 60 749Z"></path><path id="MJX-368-TEX-N-2B" d="M56 237T56 250T70 270H369V420L370 570Q380 583 389 583Q402 583 409 568V270H707Q722 262 722 250T707 230H409V-68Q401 -82 391 -82H389H387Q375 -82 369 -68V230H70Q56 237 56 250Z"></path><path id="MJX-368-TEX-I-1D44E" d="M33 157Q33 258 109 349T280 441Q331 441 370 392Q386 422 416 422Q429 422 439 414T449 394Q449 381 412 234T374 68Q374 43 381 35T402 26Q411 27 422 35Q443 55 463 131Q469 151 473 152Q475 153 483 153H487Q506 153 506 144Q506 138 501 117T481 63T449 13Q436 0 417 -8Q409 -10 393 -10Q359 -10 336 5T306 36L300 51Q299 52 296 50Q294 48 292 46Q233 -10 172 -10Q117 -10 75 30T33 157ZM351 328Q351 334 346 350T323 385T277 405Q242 405 210 374T160 293Q131 214 119 129Q119 126 119 118T118 106Q118 61 136 44T179 26Q217 26 254 59T298 110Q300 114 325 217T351 328Z"></path><path id="MJX-368-TEX-N-22C5" d="M78 250Q78 274 95 292T138 310Q162 310 180 294T199 251Q199 226 182 208T139 190T96 207T78 250Z"></path><path id="MJX-368-TEX-N-32" d="M109 429Q82 429 66 447T50 491Q50 562 103 614T235 666Q326 666 387 610T449 465Q449 422 429 383T381 315T301 241Q265 210 201 149L142 93L218 92Q375 92 385 97Q392 99 409 186V189H449V186Q448 183 436 95T421 3V0H50V19V31Q50 38 56 46T86 81Q115 113 136 137Q145 147 170 174T204 211T233 244T261 278T284 308T305 340T320 369T333 401T340 431T343 464Q343 527 309 573T212 619Q179 619 154 602T119 569T109 550Q109 549 114 549Q132 549 151 535T170 489Q170 464 154 447T109 429Z"></path><path id="MJX-368-TEX-I-1D44F" d="M73 647Q73 657 77 670T89 683Q90 683 161 688T234 694Q246 694 246 685T212 542Q204 508 195 472T180 418L176 399Q176 396 182 402Q231 442 283 442Q345 442 383 396T422 280Q422 169 343 79T173 -11Q123 -11 82 27T40 150V159Q40 180 48 217T97 414Q147 611 147 623T109 637Q104 637 101 637H96Q86 637 83 637T76 640T73 647ZM336 325V331Q336 405 275 405Q258 405 240 397T207 376T181 352T163 330L157 322L136 236Q114 150 114 114Q114 66 138 42Q154 26 178 26Q211 26 245 58Q270 81 285 114T318 219Q336 291 336 325Z"></path><path id="MJX-368-TEX-N-34" d="M462 0Q444 3 333 3Q217 3 199 0H190V46H221Q241 46 248 46T265 48T279 53T286 61Q287 63 287 115V165H28V211L179 442Q332 674 334 675Q336 677 355 677H373L379 671V211H471V165H379V114Q379 73 379 66T385 54Q393 47 442 46H471V0H462ZM293 211V545L74 212L183 211H293Z"></path><path id="MJX-368-TEX-N-33" d="M127 463Q100 463 85 480T69 524Q69 579 117 622T233 665Q268 665 277 664Q351 652 390 611T430 522Q430 470 396 421T302 350L299 348Q299 347 308 345T337 336T375 315Q457 262 457 175Q457 96 395 37T238 -22Q158 -22 100 21T42 130Q42 158 60 175T105 193Q133 193 151 175T169 130Q169 119 166 110T159 94T148 82T136 74T126 70T118 67L114 66Q165 21 238 21Q293 21 321 74Q338 107 338 175V195Q338 290 274 322Q259 328 213 329L171 330L168 332Q166 335 166 348Q166 366 174 366Q202 366 232 371Q266 376 294 413T322 525V533Q322 590 287 612Q265 626 240 626Q208 626 181 615T143 592T132 580H135Q138 579 143 578T153 573T165 566T175 555T183 540T186 520Q186 498 172 481T127 463Z"></path><path id="MJX-368-TEX-N-2C" d="M78 35T78 60T94 103T137 121Q165 121 187 96T210 8Q210 -27 201 -60T180 -117T154 -158T130 -185T117 -194Q113 -194 104 -185T95 -172Q95 -168 106 -156T131 -126T157 -76T173 -3V9L172 8Q170 7 167 6T161 3T152 1T140 0Q113 0 96 17Z"></path><path id="MJX-368-TEX-N-2208" d="M84 250Q84 372 166 450T360 539Q361 539 377 539T419 540T469 540H568Q583 532 583 520Q583 511 570 501L466 500Q355 499 329 494Q280 482 242 458T183 409T147 354T129 306T124 272V270H568Q583 262 583 250T568 230H124V228Q124 207 134 177T167 112T231 48T328 7Q355 1 466 0H570Q583 -10 583 -20Q583 -32 568 -40H471Q464 -40 446 -40T417 -41Q262 -41 172 45Q84 127 84 250Z"></path><path id="MJX-368-TEX-N-5B" d="M118 -250V750H255V710H158V-210H255V-250H118Z"></path><path id="MJX-368-TEX-N-2212" d="M84 237T84 250T98 270H679Q694 262 694 250T679 230H98Q84 237 84 250Z"></path><path id="MJX-368-TEX-I-1D70B" d="M132 -11Q98 -11 98 22V33L111 61Q186 219 220 334L228 358H196Q158 358 142 355T103 336Q92 329 81 318T62 297T53 285Q51 284 38 284Q19 284 19 294Q19 300 38 329T93 391T164 429Q171 431 389 431Q549 431 553 430Q573 423 573 402Q573 371 541 360Q535 358 472 358H408L405 341Q393 269 393 222Q393 170 402 129T421 65T431 37Q431 20 417 5T381 -10Q370 -10 363 -7T347 17T331 77Q330 86 330 121Q330 170 339 226T357 318T367 358H269L268 354Q268 351 249 275T206 114T175 17Q164 -11 132 -11Z"></path><path id="MJX-368-TEX-N-5D" d="M22 710V750H159V-250H22V-210H119V710H22Z"></path><path id="MJX-368-TEX-N-37" d="M55 458Q56 460 72 567L88 674Q88 676 108 676H128V672Q128 662 143 655T195 646T364 644H485V605L417 512Q408 500 387 472T360 435T339 403T319 367T305 330T292 284T284 230T278 162T275 80Q275 66 275 52T274 28V19Q270 2 255 -10T221 -22Q210 -22 200 -19T179 0T168 40Q168 198 265 368Q285 400 349 489L395 552H302Q128 552 119 546Q113 543 108 522T98 479L95 458V455H55V458Z"></path><path id="MJX-368-TEX-N-30" d="M96 585Q152 666 249 666Q297 666 345 640T423 548Q460 465 460 320Q460 165 417 83Q397 41 362 16T301 -15T250 -22Q224 -22 198 -16T137 16T82 83Q39 165 39 320Q39 494 96 585ZM321 597Q291 629 250 629Q208 629 178 597Q153 571 145 525T137 333Q137 175 145 125T181 46Q209 16 250 16Q290 16 318 46Q347 76 354 130T362 333Q362 478 354 524T321 597Z"></path><path id="MJX-368-TEX-N-2E" d="M78 60Q78 84 95 102T138 120Q162 120 180 104T199 61Q199 36 182 18T139 0T96 17T78 60Z"></path></defs><g stroke="currentColor" fill="currentColor" stroke-width="0" transform="matrix(1 0 0 -1 0 0)"><g data-mml-node="math"><g data-mml-node="mtable"><g data-mml-node="mtr" transform="translate(0, 1367.9)"><g data-mml-node="mtd"><g data-mml-node="mi"><use xlink:href="#MJX-368-TEX-I-1D439"></use></g><g data-mml-node="mo" transform="translate(1026.8, 0)"><use xlink:href="#MJX-368-TEX-N-3D"></use></g><g data-mml-node="mi" transform="translate(2082.6, 0)"><use xlink:href="#MJX-368-TEX-N-73"></use><use xlink:href="#MJX-368-TEX-N-69" transform="translate(394, 0)"></use><use xlink:href="#MJX-368-TEX-N-6E" transform="translate(672, 0)"></use></g><g data-mml-node="mo" transform="translate(3310.6, 0)"><use xlink:href="#MJX-368-TEX-N-2061"></use></g><g data-mml-node="mrow" transform="translate(3310.6, 0)"><g data-mml-node="mo"><use xlink:href="#MJX-368-TEX-N-28"></use></g><g data-mml-node="msub" transform="translate(389, 0)"><g data-mml-node="mi"><use xlink:href="#MJX-368-TEX-I-1D465"></use></g><g data-mml-node="mn" transform="translate(572, -150) scale(0.707)"><use xlink:href="#MJX-368-TEX-N-31"></use></g></g><g data-mml-node="mo" transform="translate(1364.6, 0)"><use xlink:href="#MJX-368-TEX-N-29"></use></g></g><g data-mml-node="mo" transform="translate(5286.3, 0)"><use xlink:href="#MJX-368-TEX-N-2B"></use></g><g data-mml-node="mi" transform="translate(6286.6, 0)"><use xlink:href="#MJX-368-TEX-I-1D44E"></use></g><g data-mml-node="mo" transform="translate(7037.8, 0)"><use xlink:href="#MJX-368-TEX-N-22C5"></use></g><g data-mml-node="msup" transform="translate(7538, 0)"><g data-mml-node="mi"><use xlink:href="#MJX-368-TEX-N-73"></use><use xlink:href="#MJX-368-TEX-N-69" transform="translate(394, 0)"></use><use xlink:href="#MJX-368-TEX-N-6E" transform="translate(672, 0)"></use></g><g data-mml-node="mn" transform="translate(1228, 396.1) scale(0.707)"><use xlink:href="#MJX-368-TEX-N-32"></use></g></g><g data-mml-node="mo" transform="translate(9169.6, 0)"><use xlink:href="#MJX-368-TEX-N-2061"></use></g><g data-mml-node="mrow" transform="translate(9169.6, 0)"><g data-mml-node="mo"><use xlink:href="#MJX-368-TEX-N-28"></use></g><g data-mml-node="msub" transform="translate(389, 0)"><g data-mml-node="mi"><use xlink:href="#MJX-368-TEX-I-1D465"></use></g><g data-mml-node="mn" transform="translate(572, -150) scale(0.707)"><use xlink:href="#MJX-368-TEX-N-32"></use></g></g><g data-mml-node="mo" transform="translate(1364.6, 0)"><use xlink:href="#MJX-368-TEX-N-29"></use></g></g><g data-mml-node="mo" transform="translate(11145.3, 0)"><use xlink:href="#MJX-368-TEX-N-2B"></use></g><g data-mml-node="mi" transform="translate(12145.5, 0)"><use xlink:href="#MJX-368-TEX-I-1D44F"></use></g><g data-mml-node="mo" transform="translate(12796.8, 0)"><use xlink:href="#MJX-368-TEX-N-22C5"></use></g><g data-mml-node="msubsup" transform="translate(13297, 0)"><g data-mml-node="mi"><use xlink:href="#MJX-368-TEX-I-1D465"></use></g><g data-mml-node="mn" transform="translate(572, 363) scale(0.707)"><use xlink:href="#MJX-368-TEX-N-34"></use></g><g data-mml-node="mn" transform="translate(572, -287.2) scale(0.707)"><use xlink:href="#MJX-368-TEX-N-33"></use></g></g><g data-mml-node="mo" transform="translate(14494.8, 0)"><use xlink:href="#MJX-368-TEX-N-22C5"></use></g><g data-mml-node="mi" transform="translate(14995, 0)"><use xlink:href="#MJX-368-TEX-N-73"></use><use xlink:href="#MJX-368-TEX-N-69" transform="translate(394, 0)"></use><use xlink:href="#MJX-368-TEX-N-6E" transform="translate(672, 0)"></use></g><g data-mml-node="mo" transform="translate(16223, 0)"><use xlink:href="#MJX-368-TEX-N-2061"></use></g><g data-mml-node="mrow" transform="translate(16223, 0)"><g data-mml-node="mo"><use xlink:href="#MJX-368-TEX-N-28"></use></g><g data-mml-node="msub" transform="translate(389, 0)"><g data-mml-node="mi"><use xlink:href="#MJX-368-TEX-I-1D465"></use></g><g data-mml-node="mn" transform="translate(572, -150) scale(0.707)"><use xlink:href="#MJX-368-TEX-N-31"></use></g></g><g data-mml-node="mo" transform="translate(1364.6, 0)"><use xlink:href="#MJX-368-TEX-N-29"></use></g></g></g></g><g data-mml-node="mtr" transform="translate(0, -84.9)"><g data-mml-node="mtd" transform="translate(5009.7, 0)"><g data-mml-node="msub"><g data-mml-node="mi"><use xlink:href="#MJX-368-TEX-I-1D465"></use></g><g data-mml-node="mn" transform="translate(572, -150) scale(0.707)"><use xlink:href="#MJX-368-TEX-N-31"></use></g></g><g data-mml-node="mo" transform="translate(975.6, 0)"><use xlink:href="#MJX-368-TEX-N-2C"></use></g><g data-mml-node="msub" transform="translate(1420.2, 0)"><g data-mml-node="mi"><use xlink:href="#MJX-368-TEX-I-1D465"></use></g><g data-mml-node="mn" transform="translate(572, -150) scale(0.707)"><use xlink:href="#MJX-368-TEX-N-32"></use></g></g><g data-mml-node="mo" transform="translate(2395.8, 0)"><use xlink:href="#MJX-368-TEX-N-2C"></use></g><g data-mml-node="msub" transform="translate(2840.4, 0)"><g data-mml-node="mi"><use xlink:href="#MJX-368-TEX-I-1D465"></use></g><g data-mml-node="mn" transform="translate(572, -150) scale(0.707)"><use xlink:href="#MJX-368-TEX-N-33"></use></g></g><g data-mml-node="mo" transform="translate(4093.8, 0)"><use xlink:href="#MJX-368-TEX-N-2208"></use></g><g data-mml-node="mrow" transform="translate(5038.5, 0)"><g data-mml-node="mo"><use xlink:href="#MJX-368-TEX-N-5B"></use></g><g data-mml-node="mo" transform="translate(278, 0)"><use xlink:href="#MJX-368-TEX-N-2212"></use></g><g data-mml-node="mi" transform="translate(1056, 0)"><use xlink:href="#MJX-368-TEX-I-1D70B"></use></g><g data-mml-node="mo" transform="translate(1626, 0)"><use xlink:href="#MJX-368-TEX-N-2C"></use></g><g data-mml-node="mi" transform="translate(2070.7, 0)"><use xlink:href="#MJX-368-TEX-I-1D70B"></use></g><g data-mml-node="mo" transform="translate(2640.7, 0)"><use xlink:href="#MJX-368-TEX-N-5D"></use></g></g></g></g><g data-mml-node="mtr" transform="translate(0, -1484.9)"><g data-mml-node="mtd" transform="translate(6064.4, 0)"><g data-mml-node="mi"><use xlink:href="#MJX-368-TEX-I-1D44E"></use></g><g data-mml-node="mo" transform="translate(806.8, 0)"><use xlink:href="#MJX-368-TEX-N-3D"></use></g><g data-mml-node="mn" transform="translate(1862.6, 0)"><use xlink:href="#MJX-368-TEX-N-37"></use></g><g data-mml-node="mo" transform="translate(2362.6, 0)"><use xlink:href="#MJX-368-TEX-N-2C"></use></g><g data-mml-node="mi" transform="translate(2807.2, 0)"><use xlink:href="#MJX-368-TEX-I-1D44F"></use></g><g data-mml-node="mo" transform="translate(3514, 0)"><use xlink:href="#MJX-368-TEX-N-3D"></use></g><g data-mml-node="mn" transform="translate(4569.8, 0)"><use xlink:href="#MJX-368-TEX-N-30"></use><use xlink:href="#MJX-368-TEX-N-2E" transform="translate(500, 0)"></use><use xlink:href="#MJX-368-TEX-N-31" transform="translate(778, 0)"></use></g></g></g></g></g></g></svg>